<?xml version="1.0" standalone="no"?><!DOCTYPE svg PUBLIC "-//W3C//DTD SVG 1.1//EN" "http://www.w3.org/Graphics/SVG/1.1/DTD/svg11.dtd"><svg t="1625120678415" class="icon" viewBox="0 0 1024 1024" version="1.1" xmlns="http://www.w3.org/2000/svg" p-id="2302" xmlns:xlink="http://www.w3.org/1999/xlink" width="64" height="64"><defs><style type="text/css"></style></defs><path d="M962.412 415.044 573.704 105.018c-33.45-26.748-85.954-26.704-119.382 0L65.656 415.044c-13.278 10.602-15.556 30.078-5.058 43.482 10.476 13.406 29.34 15.682 42.618 5.1l12.12-10.032 0 374.882c0 53.136 55.476 92.846 104.27 92.846l613.392 0c48.204 0 79.736-37.328 79.736-92.846L912.734 455.05l11.192 8.578c5.648 4.49 12.584 6.66 19.222 6.66 9.042 0 18.126-4.026 24.176-11.762C977.84 445.122 975.732 425.646 962.412 415.044L962.412 415.044zM483.366 859.418l0-171.59c0-8.536 15.324-12.816 30.668-12.816 15.324 0 30.668 4.278 30.668 12.816l0 171.59L483.366 859.418 483.366 859.418zM851.398 828.476c0 20.508-5.628 30.942-18.4 30.942L606.648 859.418c0-0.464-0.612-0.844-0.612-1.306l0-170.284c0-36-28.77-74.74-92.002-74.74s-92.002 38.74-92.002 74.74l0 170.284c0 0.464 0.822 0.844 0.822 1.306L219.606 859.418c-19.222 0-42.934-16.778-42.934-30.942L176.672 404.674 491.924 153.58c11.318-9.042 31.742-9.042 43.082 0l316.392 252.548L851.398 828.476 851.398 828.476z" p-id="2303" fill="#f0a02c"></path></svg>