<?xml version="1.0" standalone="no"?><!DOCTYPE svg PUBLIC "-//W3C//DTD SVG 1.1//EN" "http://www.w3.org/Graphics/SVG/1.1/DTD/svg11.dtd"><svg t="1625120732010" class="icon" viewBox="0 0 1024 1024" version="1.1" xmlns="http://www.w3.org/2000/svg" p-id="3404" xmlns:xlink="http://www.w3.org/1999/xlink" width="64" height="64"><defs><style type="text/css"></style></defs><path d="M409.6 477.866667H204.8a102.4 102.4 0 0 1-102.4-102.4V238.933333a136.533333 136.533333 0 0 1 136.533333-136.533333h136.533334a102.4 102.4 0 0 1 102.4 102.4v204.8a68.266667 68.266667 0 0 1-68.266667 68.266667zM238.933333 170.666667a68.266667 68.266667 0 0 0-68.266666 68.266666v136.533334a34.133333 34.133333 0 0 0 34.133333 34.133333h204.8V204.8a34.133333 34.133333 0 0 0-34.133333-34.133333z m580.266667 307.2h-204.8a68.266667 68.266667 0 0 1-68.266667-68.266667V204.8a102.4 102.4 0 0 1 102.4-102.4h136.533334a136.533333 136.533333 0 0 1 136.533333 136.533333v136.533334a102.4 102.4 0 0 1-102.4 102.4z m-170.666667-307.2a34.133333 34.133333 0 0 0-34.133333 34.133333v204.8h204.8a34.133333 34.133333 0 0 0 34.133333-34.133333V238.933333a68.266667 68.266667 0 0 0-68.266666-68.266666z m-273.066666 750.933333H238.933333a136.533333 136.533333 0 0 1-136.533333-136.533333v-136.533334a102.4 102.4 0 0 1 102.4-102.4h204.8a68.266667 68.266667 0 0 1 68.266667 68.266667v204.8a102.4 102.4 0 0 1-102.4 102.4z m-170.666667-307.2a34.133333 34.133333 0 0 0-34.133333 34.133333v136.533334a68.266667 68.266667 0 0 0 68.266666 68.266666h136.533334a34.133333 34.133333 0 0 0 34.133333-34.133333v-204.8z m580.266667 307.2h-136.533334a102.4 102.4 0 0 1-102.4-102.4v-204.8a68.266667 68.266667 0 0 1 68.266667-68.266667h204.8a102.4 102.4 0 0 1 102.4 102.4v136.533334a136.533333 136.533333 0 0 1-136.533333 136.533333z m-170.666667-307.2v204.8a34.133333 34.133333 0 0 0 34.133333 34.133333h136.533334a68.266667 68.266667 0 0 0 68.266666-68.266666v-136.533334a34.133333 34.133333 0 0 0-34.133333-34.133333z" p-id="3405" fill="#707070"></path></svg>